# xmcd
#
# Track frame offsets: 
#        150
#        15703
#        30080
#        51018
#        64812
#        78388
#        94117
#        107247
#        120079
#        135579
#
# Disc length: 2003 seconds
#
# Revision: 0
# Processed by: cddbd v1.5.2PL0 Copyright (c) Steve Scherf et al.
# Submitted via: ExactAudioCopyFreeDBPlugin 1.0
#
DISCID=7007d10a
DTITLE=Jason Whited - Scarecrow King
DYEAR=2005
DGENRE=Country
TTITLE0=Scarecrow King
TTITLE1=Let's Do A Little Dance In The Kitchen
TTITLE2=Old Friends
TTITLE3=I'm Ready, Ready Or Not
TTITLE4=I Got A Hunch About You Baby 
TTITLE5=Walk You Off My Mind
TTITLE6=Forecast Cold and Lonely Overnight
TTITLE7=Grand Opening Of My Heart
TTITLE8=Half An Hour From Happiness
TTITLE9=True Love Ways
EXTD=
EXTT0=
EXTT1=
EXTT2=
EXTT3=
EXTT4=
EXTT5=
EXTT6=
EXTT7=
EXTT8=
EXTT9=
PLAYORDER=
